#!OML:ASF I:\Actors\actors\Patient Classification 2\Patient 1\Session 1\actor1.ASF
:FULLY-SPECIFIED
:DEGREES
1161
root -1.08224 18.0509 5.96947 -2.74897 -3.10309 -3.92403
lowerback 3.72663 0.803184 3.45317
upperback -2.09045 1.31712 1.35979
thorax -4.20578 0.576535 -0.626886
lowerneck -10.2078 -1.38896 -0.67665
upperneck 19.7399 -2.12006 1.52785
head 7.78991 -0.918136 0.410498
rclavicle 1.43653e-014 -1.26228e-014
rhumerus -50.9927 -10.9194 -80.6656
rradius 42.746
rwrist 16.0717
rhand -5.3487 -30.7523
rfingers 7.12502
rthumb 20.4583 -59.6945
lclavicle 1.43653e-014 -1.26228e-014
lhumerus -44.6678 6.42279 88.9844
lradius 36.9749
lwrist -13.6834
lhand -2.55797 -26.3446
lfingers 7.12502
lthumb 23.1381 2.28591
rfemur 0 0 0
rtibia 0
rfoot 0 0
rtoes 0
lfemur 21.8202 -8.33161 -13.7619
ltibia -17.6328
lfoot -5.98478 21.6965
ltoes -9.32596
1162
root -1.08232 18.0528 5.96426 -2.73107 -3.06048 -3.87745
lowerback 3.74619 0.804985 3.38418
upperback -2.06746 1.31561 1.3519
thorax -4.19413 0.578016 -0.596542
lowerneck -10.2435 -1.38558 -0.771686
upperneck 19.7043 -2.11245 1.60408
head 7.78638 -0.914216 0.451996
rclavicle -1.48623e-014 3.97569e-016
rhumerus -51.1693 -11.0818 -80.4448
rradius 42.2373
rwrist 16.4542
rhand -5.41705 -29.6411
rfingers 7.12502
rthumb 20.3927 -58.5904
lclavicle -1.48623e-014 3.97569e-016
lhumerus -44.7769 6.47408 88.9036
lradius 36.782
lwrist -13.9794
lhand -2.82828 -26.5412
lfingers 7.12502
lthumb 22.8788 2.12158
rfemur 0 0 0
rtibia 0
rfoot 0 0
rtoes 0
lfemur 21.7633 -8.33301 -13.8028
ltibia -17.6312
lfoot -5.93988 21.6754
ltoes -9.25488
1163
root -1.08405 18.0548 5.95712 -2.72113 -3.04023 -3.84721
lowerback 3.81855 0.812328 3.31044
upperback -2.05406 1.32437 1.35367
thorax -4.22241 0.584178 -0.555254
lowerneck -10.2678 -1.40596 -0.897542
upperneck 19.6547 -2.1415 1.72731
head 7.7775 -0.92576 0.510611
rclavicle 1.11195e-015 -1.80397e-014
rhumerus -51.3642 -11.2172 -80.2455
rradius 41.8374
rwrist 16.892
rhand -5.26364 -29.1266
rfingers 7.12502
rthumb 20.5401 -58.06
lclavicle 1.11195e-015 -1.80397e-014
lhumerus -44.9282 6.51416 88.829
lradius 36.751
lwrist -14.08
lhand -2.80487 -26.5215
lfingers 7.12502
lthumb 22.9012 2.13852
rfemur 0 0 0
rtibia 0
rfoot 0 0
rtoes 0
lfemur 21.714 -8.33206 -13.8238
ltibia -17.6338
lfoot -5.88528 21.6681
ltoes -9.41896
1164
root -1.086 18.0556 5.95037 -2.72934 -3.01617 -3.91518
lowerback 3.85727 0.810399 3.3338
upperback -2.0003 1.3242 1.3791
thorax -4.18862 0.58477 -0.542324
lowerneck -10.3409 -1.43222 -0.977523
upperneck 19.6093 -2.17367 1.78604
head 7.77775 -0.94117 0.53968
rclavicle -2.28292e-015 1.48095e-014
rhumerus -51.5321 -11.3426 -80.0895
rradius 41.5352
rwrist 17.2898
rhand -5.22236 -29.1783
rfingers 7.12502
rthumb 20.5798 -58.1074
lclavicle -2.28292e-015 1.48095e-014
lhumerus -44.9613 6.65834 88.6939
lradius 36.6597
lwrist -14.2663
lhand -2.71174 -26.614
lfingers 7.12502
lthumb 22.9906 2.03496
rfemur 0 0 0
rtibia 0
rfoot 0 0
rtoes 0
lfemur 21.6892 -8.31006 -13.7283
ltibia -17.6291
lfoot -5.86482 21.6324
ltoes -9.48575
1165
root -1.08727 18.0564 5.94365 -2.71951 -2.97765 -3.98966
lowerback 3.82407 0.803652 3.35947
upperback -1.91984 1.3134 1.40386
thorax -4.08659 0.581274 -0.529229
lowerneck -10.4715 -1.46311 -1.03342
upperneck 19.5918 -2.20862 1.80491
head 7.79694 -0.959358 0.550892
rclavicle 5.2709e-015 -2.02512e-014
rhumerus -51.7004 -11.3977 -80.0043
rradius 41.3289
rwrist 17.5497
rhand -5.33091 -28.991
rfingers 7.12502
rthumb 20.4754 -57.9313
lclavicle 5.2709e-015 -2.02512e-014
lhumerus -44.875 6.94646 88.4846
lradius 36.4415
lwrist -14.6388
lhand -2.70465 -26.8126
lfingers 7.12502
lthumb 22.9974 1.83551
rfemur 0 0 0
rtibia 0
rfoot 0 0
rtoes 0
lfemur 21.6492 -8.30876 -13.6224
ltibia -17.6347
lfoot -5.85387 21.5975
ltoes -9.22641
1166
root -1.08871 18.0583 5.93634 -2.69126 -2.97616 -3.9912
lowerback 3.81721 0.810231 3.30004
upperback -1.87169 1.31718 1.40807
thorax -4.03379 0.586013 -0.491491
lowerneck -10.5973 -1.48903 -1.03486
upperneck 19.6007 -2.2389 1.78214
head 7.82285 -0.975162 0.539748
rclavicle 5.86725e-015 -5.96354e-015
rhumerus -51.9193 -11.3601 -79.9923
rradius 41.2223
rwrist 17.7115
rhand -5.30274 -28.7856
rfingers 7.12502
rthumb 20.5025 -57.723
lclavicle 5.86725e-015 -5.96354e-015
lhumerus -44.8614 7.1135 88.3181
lradius 36.3069
lwrist -14.8546
lhand -2.75596 -26.9714
lfingers 7.12502
lthumb 22.9482 1.68279
rfemur 0 0 0
rtibia 0
rfoot 0 0
rtoes 0
lfemur 21.5965 -8.28589 -13.5957
ltibia -17.6582
lfoot -5.79084 21.5563
ltoes -9.18579
